<?xml version="1.0" standalone="no"?>
<!DOCTYPE svg PUBLIC "-//W3C//DTD SVG 20010904//EN"
 "http://www.w3.org/TR/2001/REC-SVG-20010904/DTD/svg10.dtd">
<svg version="1.0" xmlns="http://www.w3.org/2000/svg"
 width="1333.000000pt" height="1333.000000pt" viewBox="0 0 1333.000000 1333.000000"
 preserveAspectRatio="xMidYMid meet">
<metadata>
Created by potrace 1.11, written by Peter Selinger 2001-2013
</metadata>
<g transform="translate(0.000000,1333.000000) scale(0.100000,-0.100000)"
fill="#000000" stroke="none">
<path d="M2417 13308 c-40 -37 -2417 -4193 -2417 -4225 0 -21 810 -1141 3281
-4538 1804 -2481 3289 -4518 3301 -4527 30 -26 73 -22 107 10 24 22 6569 8928
6625 9014 11 16 17 40 14 55 -5 36 -2441 4180 -2474 4211 l-25 22 -4194 0
-4194 0 -24 -22z m9523 -2164 c652 -1109 1189 -2024 1194 -2034 6 -14 -646
-909 -3230 -4426 -1780 -2425 -3245 -4419 -3255 -4432 -17 -23 -31 -4 -3234
4400 -1770 2432 -3219 4427 -3222 4433 -3 9 2187 3843 2309 4043 l20 32 4116
0 4117 -1 1185 -2015z"/>
<path d="M2712 13023 c-31 -27 -2252 -3909 -2252 -3936 0 -31 6106 -8427 6141
-8444 64 -31 -137 -297 3176 4213 2227 3030 3093 4216 3093 4235 0 27 -2278
3913 -2308 3937 -13 9 -812 12 -3923 12 -3706 0 -3908 -1 -3927 -17z m7769
-126 c17 -13 2218 -3767 2226 -3796 3 -13 -923 -1282 -3019 -4137 -2574 -3506
-3028 -4119 -3048 -4119 -21 0 -466 606 -3023 4120 -2766 3799 -2999 4121
-2990 4145 18 47 2147 3775 2162 3787 23 18 7669 18 7692 0z"/>
<path d="M1746 10982 c-588 -1032 -1068 -1881 -1068 -1887 1 -11 5954 -8194
5962 -8194 7 0 6015 8187 6014 8195 0 4 -495 852 -1100 1885 l-1099 1878
-3820 0 -3820 0 -1069 -1877z m4702 367 c98 -11 387 -79 402 -95 7 -7 43 -316
76 -655 9 -99 6 -104 -87 -129 -65 -17 -86 -19 -108 -10 -36 14 -46 33 -92
169 -22 64 -59 148 -81 186 -53 90 -167 203 -241 240 -159 77 -394 48 -540
-67 -59 -47 -122 -138 -149 -215 -32 -94 -32 -260 0 -348 67 -183 253 -344
632 -545 483 -257 674 -423 755 -657 37 -106 48 -201 42 -368 -6 -175 -26
-266 -87 -393 -91 -190 -214 -302 -464 -423 -170 -82 -210 -90 -523 -96 -218
-5 -278 -3 -363 12 -121 20 -224 52 -336 104 -71 34 -83 43 -96 77 -42 105
-118 551 -118 694 0 90 12 111 75 136 38 14 52 15 85 5 48 -14 70 -41 105
-128 125 -311 258 -484 442 -575 85 -42 88 -43 207 -46 145 -5 274 15 351 53
61 29 163 133 196 198 71 138 77 382 12 517 -47 98 -225 256 -428 380 -38 24
-145 85 -237 136 -436 243 -611 416 -688 684 -31 108 -39 353 -15 471 55 271
209 464 480 602 95 48 166 65 380 90 70 9 323 6 413 -4z m-3008 -119 c0 -76
-16 -122 -50 -140 -10 -5 -76 -21 -145 -35 -221 -44 -239 -64 -256 -278 -26
-332 -26 -2229 -1 -2323 15 -53 71 -117 125 -142 88 -42 198 -57 397 -56 271
1 428 37 520 120 75 68 233 324 269 437 23 69 99 84 192 37 51 -26 63 -51 55
-113 -8 -54 -72 -346 -131 -594 l-37 -153 -1170 0 -1171 0 7 81 c11 135 28
151 181 174 156 24 234 70 256 153 15 60 24 1831 11 2245 -8 252 -11 280 -28
305 -30 41 -118 80 -242 106 -166 35 -182 51 -182 177 l0 69 700 0 700 0 0
-70z m5530 -2 c0 -122 -26 -148 -175 -178 -135 -27 -182 -46 -200 -79 -41 -81
-65 -359 -65 -778 l0 -293 846 0 846 0 -7 183 c-18 549 -40 840 -65 886 -16
32 -62 50 -171 71 -113 22 -182 49 -198 78 -6 12 -11 57 -11 101 l0 81 680 0
680 0 0 -76 c0 -126 -36 -160 -185 -173 -95 -9 -147 -31 -222 -93 l-52 -43 0
-1258 c-1 -1257 -1 -1259 20 -1288 44 -63 147 -112 259 -124 82 -9 138 -32
154 -63 8 -15 17 -54 20 -87 4 -33 9 -77 12 -97 l6 -38 -722 0 -722 0 4 95 c6
147 39 177 214 193 114 10 164 30 231 90 l41 38 11 420 c6 230 14 501 17 602
l6 182 -851 0 -851 0 0 -102 c0 -57 5 -258 10 -448 15 -533 31 -662 88 -722
32 -35 62 -44 188 -62 153 -21 176 -39 189 -148 3 -27 8 -68 11 -93 l5 -45
-706 0 -707 0 7 83 c14 158 34 181 165 197 119 15 184 37 233 80 l41 37 7 144
c4 79 10 653 15 1274 l7 1131 -54 46 c-80 68 -128 89 -229 98 -148 14 -181 44
-188 171 l-5 79 687 0 686 0 0 -72z m965 -4791 c6 -31 15 -42 49 -59 48 -24
56 -34 56 -69 0 -45 -58 -80 -170 -104 -104 -22 -143 -20 -178 10 -26 22 -31
23 -42 10 -38 -45 -188 -55 -294 -19 -131 45 -226 206 -226 385 0 270 176 458
445 478 l90 6 3 70 c4 95 -10 138 -53 165 -64 39 -87 126 -42 153 12 8 67 20
122 26 55 7 127 18 160 24 l60 13 6 -526 c3 -289 10 -542 14 -563z m-6122
1044 c36 -22 57 -57 57 -95 0 -39 -50 -125 -82 -142 -38 -20 -61 -11 -119 43
-54 51 -75 52 -101 7 -21 -36 -42 -174 -34 -219 6 -32 7 -32 79 -37 110 -8
149 -34 132 -89 -9 -28 -75 -55 -152 -64 l-62 -7 5 -151 c6 -172 20 -332 29
-347 4 -6 29 -22 56 -36 63 -31 82 -66 52 -95 -55 -55 -482 -47 -517 9 -13 21
19 64 65 87 58 30 59 34 59 295 0 223 -3 240 -36 240 -86 0 -115 81 -44 127
19 12 43 28 53 35 11 8 28 49 43 107 13 51 36 116 52 144 58 108 179 201 281
216 63 9 144 -3 184 -28z m3106 -210 c6 -10 13 -66 17 -125 l7 -106 46 -1 c66
0 114 -19 128 -51 29 -60 -27 -108 -127 -108 l-51 0 3 -218 c4 -255 8 -272 79
-272 83 0 139 -43 120 -93 -24 -62 -134 -109 -256 -111 -99 -1 -150 21 -172
72 -19 47 -32 205 -33 407 0 199 -3 215 -37 215 -27 0 -64 17 -75 34 -14 20
-8 63 10 78 9 9 35 24 57 34 33 16 41 25 46 55 19 121 199 264 238 190z
m-2519 -214 c13 -7 35 -28 47 -46 38 -56 28 -178 -16 -197 -9 -4 -58 -10 -109
-14 -113 -8 -128 -19 -143 -107 -14 -79 2 -273 25 -308 9 -14 35 -34 59 -46
48 -25 57 -35 57 -67 0 -17 -10 -27 -37 -40 -31 -13 -72 -16 -223 -16 -203 1
-263 12 -268 50 -4 28 32 70 72 84 19 6 37 19 41 28 12 32 17 277 7 369 -9 86
-12 95 -46 133 -77 85 -26 141 156 171 96 16 129 7 142 -37 l9 -32 49 35 c71
52 129 65 178 40z m780 -17 c56 -29 164 -132 197 -187 14 -24 27 -65 30 -95 7
-74 -13 -293 -33 -351 -21 -61 -116 -157 -194 -195 -51 -25 -64 -27 -185 -27
-117 0 -135 2 -179 24 -71 35 -170 136 -203 207 -25 53 -27 70 -27 169 1 226
77 373 224 439 81 37 129 45 235 42 71 -2 99 -7 135 -26z m1046 11 c104 -47
124 -107 134 -402 6 -140 13 -235 21 -252 7 -15 28 -37 46 -48 19 -12 41 -32
50 -45 14 -22 14 -26 -1 -49 -21 -32 -64 -40 -226 -40 -106 0 -145 4 -182 18
-70 27 -76 69 -13 103 44 23 55 70 55 231 0 162 -14 237 -54 280 l-31 33 -61
-29 c-43 -20 -63 -36 -67 -52 -10 -36 -8 -338 2 -382 5 -20 25 -55 45 -77 63
-70 41 -105 -76 -122 -89 -12 -277 -3 -324 17 -25 10 -34 20 -34 38 0 27 32
61 73 76 15 6 32 22 37 36 13 34 13 390 0 434 -5 19 -24 49 -41 67 -36 37 -41
75 -14 104 33 36 220 81 278 66 13 -3 29 -17 35 -31 l12 -26 42 22 c98 50 222
63 294 30z m1556 -13 c108 -50 168 -140 168 -255 0 -123 -38 -144 -283 -154
-98 -4 -181 -10 -184 -12 -8 -9 16 -71 46 -119 33 -52 96 -88 154 -88 21 0 63
9 94 20 69 24 116 26 137 4 32 -31 13 -85 -51 -145 -138 -132 -397 -145 -521
-26 -19 18 -46 57 -62 87 -43 86 -53 147 -48 284 6 160 30 217 129 311 107
101 166 126 284 122 61 -3 94 -9 137 -29z m969 20 c120 -40 146 -114 158 -446
l7 -214 59 -52 c50 -45 57 -56 52 -78 -11 -43 -53 -53 -227 -53 -134 0 -160 3
-195 20 -60 30 -59 83 2 106 80 30 59 483 -24 528 -15 7 -31 4 -69 -13 -79
-37 -79 -36 -79 -230 0 -94 3 -187 8 -207 4 -20 23 -52 42 -72 56 -58 43 -108
-33 -124 -20 -4 -102 -8 -182 -7 -204 1 -255 26 -200 97 11 14 36 31 54 37 19
6 37 19 41 28 12 32 17 277 7 369 -9 86 -12 95 -46 133 -53 59 -48 98 15 131
43 22 162 49 215 49 33 0 66 -22 76 -50 2 -8 14 -6 38 9 76 44 211 63 281 39z
m-1817 -1819 c14 -7 27 -18 31 -26 3 -8 -19 -101 -49 -206 -48 -168 -333
-1125 -417 -1399 l-30 -98 -84 0 c-98 0 -132 10 -141 43 -4 20 262 951 462
1615 l25 82 89 0 c49 0 100 -5 114 -11z m-924 -386 c0 -117 -11 -138 -97 -195
-32 -21 -208 -114 -390 -206 -183 -92 -333 -169 -333 -172 0 -3 69 -41 153
-84 512 -266 595 -315 621 -370 29 -61 15 -180 -22 -188 -25 -6 -105 32 -444
208 -511 264 -583 308 -612 368 -39 82 -11 144 96 213 65 42 1002 522 1021
523 4 0 7 -44 7 -97z m1673 -129 c604 -302 642 -325 674 -402 30 -73 -3 -132
-113 -202 -82 -51 -464 -248 -749 -385 -239 -115 -246 -116 -265 -47 -25 93
-2 147 91 210 35 24 215 119 400 211 l336 167 -335 169 c-184 93 -362 188
-395 210 -92 62 -101 79 -105 196 -2 54 -1 99 2 99 3 0 210 -102 459 -226z"/>
<path d="M9520 6893 c-68 -35 -100 -110 -100 -236 0 -123 49 -235 120 -272 25
-13 33 -13 62 0 62 25 63 28 63 249 0 185 -2 204 -20 236 -17 28 -28 36 -55
38 -19 1 -51 -6 -70 -15z"/>
<path d="M4937 6883 c-40 -43 -59 -100 -65 -195 -10 -177 50 -331 138 -353
127 -31 160 370 45 538 -33 48 -77 51 -118 10z"/>
<path d="M7550 6881 c-29 -29 -48 -76 -35 -89 3 -4 42 -7 85 -7 43 0 81 3 85
7 12 12 -3 54 -31 87 -33 39 -66 40 -104 2z"/>
<path d="M8635 6290 c-3 -5 -1 -10 4 -10 6 0 11 5 11 10 0 6 -2 10 -4 10 -3 0
-8 -4 -11 -10z"/>
</g>
</svg>
