<svg xmlns="http://www.w3.org/2000/svg" width="13" height="10" fill="#883eca"><path d="M.42.45a1.45 1.45 0 0 0-.42 1v7.08a1.45 1.45 0 0 0 .42 1A1.51 1.51 0 0 0 1.5 10h10A1.49 1.49 0 0 0 13 8.53V1.47A1.49 1.49 0 0 0 11.5 0h-10A1.56 1.56 0 0 0 .42.45zM2 2a.49.49 0 0 1 .66 0L6.5 5.26 10.32 2A.48.48 0 0 1 11 2a.47.47 0 0 1 0 .63L8.71 4.9 11 7.38a.45.45 0 0 1 0 .65.47.47 0 0 1-.63 0L7.91 5.71l-.65.64a1.14 1.14 0 0 1-1.52 0l-.65-.64L2.69 8A.49.49 0 0 1 2 8a.46.46 0 0 1 0-.63l2.29-2.46L2 2.66A.48.48 0 0 1 2 2z"/></svg>