<svg xmlns="http://www.w3.org/2000/svg" xmlns:xlink="http://www.w3.org/1999/xlink">
  <symbol id="logo-border" viewBox="0 0 125 125" fill="none" stroke-linecap="round" stroke-linejoin="round">
    <path d="M100.2 2.5L122 39.3l-59.8 81.4L2.9 39.3 24 2.5h76.2m1.5-2.5H22.6L0 39.5 62.2 125 125 39.5 101.7 0z"/>
  </symbol>

  <symbol id="logo-inner" viewBox="0 0 125 125" fill="currentColor">
    <path d="M59.6 90.5c.1-.3 1.1-3.7 2.3-7.7l2.1-7.2h.9c.5 0 .8.1.8.2s-1 3.5-2.2 7.7L61.2 91h-.9c-.6 0-.7-.1-.7-.5zm-7.9-3.1c-4.2-2.2-4.6-2.4-4.6-3.2s.4-1 4.9-3.3l4.9-2.5v.9c0 .8-.2 1-3.9 2.9l-3.9 2 3.8 2c3.5 1.8 3.8 2 3.8 2.8 0 .5-.1.8-.2.8-.2 0-2.3-1.1-4.8-2.4zM68.5 89c0-.8.3-1 3.9-2.8l4-2-4-2c-3.7-1.9-3.9-2-3.9-2.9v-.9l4.9 2.5c4.6 2.3 4.9 2.5 4.9 3.3s-.4 1-4.8 3.2c-2.6 1.3-4.8 2.4-4.9 2.4 0 0-.1-.3-.1-.8zm-23-23.3c-.9-.9-1-1.1-1-2.5 0-2.7 1.3-4.1 3.8-4.1 1 0 1.3.2 2.2 1.1 1 1 1.1 1.1.9 2.9-.1 1.7-.2 2-1.1 2.8-.8.7-1.1.9-2.4.9-1.3-.1-1.6-.3-2.4-1.1zm3.6-.6c.8-1.9 0-5.1-1.1-5.1-1.3 0-1.9 2.9-1 4.8.6 1.3 1.7 1.4 2.1.3zM64 66.3c-.2-.2-.4-1.3-.4-3.2 0-2.6 0-2.9-.6-2.9-.3 0-.6-.2-.6-.3 0-.2.3-.4.6-.5.4-.1.6-.4.6-.8 0-.6 1.1-1.6 1.6-1.6.1 0 .2.5.2 1.1 0 1.1.1 1.1.9 1.1.6 0 .9.2.9.5s-.3.5-.9.5h-1v2.3c0 2.4.2 2.8 1.2 2.8.9 0 .9.6 0 1-.8.4-2.2.4-2.5 0zm5.8 0c-1-.7-1.3-2-1.2-3.6.2-1.2.3-1.6 1.2-2.5.8-.8 1.2-1 2.2-1 1.4 0 2.6 1 2.6 2.3 0 1.1-.4 1.2-2.6 1.2-1.8 0-2 .1-1.2 1.4.5 1.1 1.6 1.3 2.7.9 1.1-.6 1.4.1.4 1-1.2.8-3.1 1-4.1.3zm2.9-4.7c.3-.5-.4-1.5-1-1.5s-1.1.8-1.1 1.4c0 .3 1.8.3 2.1.1zm14.4 4.6c-.9-.8-1.2-1.6-1.2-3 0-2.3 1.6-4 3.9-4 1 0 1.1 0 1.1-1.1 0-.9-.2-1.2-.6-1.5-.8-.5-.8-1.1 0-1.1.3 0 1-.1 1.4-.2l.9-.2v5.1c0 4.9 0 5.1.6 5.3 1 .3.5.9-.9 1.1-1 .2-1.3.2-1.4-.2-.2-.3-.3-.3-.6 0-.7.4-2.5.3-3.2-.2zm3.1-1c.5-.3.6-.7.6-2.4 0-2.3-.4-3-1.5-2.7-1.9.5-1.7 4.9.3 5.4 0 0 .3-.1.6-.3zm-58.7 1c0-.2.3-.4.6-.5.5-.2.6-.5.6-2.8 0-2.4 0-2.6-.6-2.6-.8 0-.8-.6 0-.8.4-.1.6-.5.8-1.3.3-1.6 1.7-3.2 3.2-3.2 1.2 0 1.8.6 1.3 1.4-.4.8-.7.8-1.1.2-1-1.1-1.7-.3-1.7 1.8 0 .9.1 1 1.1 1 1.3 0 1.1.7-.2.8l-1 .1.1 2.5c.1 2.3.2 2.6.8 2.8 1.1.5.7.8-1.5.8-1.4-.1-2.4-.1-2.4-.2zm5.7 0c0-.2.3-.4.6-.5.5-.2.6-.5.6-2.5 0-1.9-.1-2.4-.5-2.7-.7-.5-.3-.9 1.1-1.1 1-.2 1.1-.2 1.1.5v.7l.7-.7c1.1-1 2-.8 2 .4 0 .8-.1.9-1.1.9-1.4 0-1.7.5-1.6 2.7.1 1.3.2 1.7.8 1.9 1.1.5.7.8-1.5.8-1.1-.3-2.2-.3-2.2-.4zm15.7 0c0-.2.3-.4.6-.5.5-.2.6-.5.6-2.5 0-1.9-.1-2.4-.5-2.7-.7-.5-.3-.9 1.1-1.1.9-.2 1.1-.1 1.1.3 0 .5.1.5.8 0 .4-.3 1.1-.5 1.7-.5 1.5 0 1.9.8 1.9 3.6 0 2.1.1 2.4.6 2.8 1 .6.7.8-1.3.8-1.7 0-2.4-.3-1.4-.7.7-.2.6-4.3 0-4.9-.5-.6-.5-.6-1.4-.1-.7.3-.8.5-.8 2.4 0 1.5.1 2.2.5 2.5.8.7.5.9-1.4.9-1.3-.2-2.1-.2-2.1-.3zm23.1 0c0-.2.3-.4.6-.5.5-.2.6-.5.6-2.5 0-1.9-.1-2.4-.5-2.7-.7-.5-.3-.9 1.1-1.1.9-.2 1.1-.1 1.1.3 0 .5.1.5.8 0 .4-.3 1.1-.5 1.7-.5 1.5 0 1.9.8 1.9 3.6 0 2.1.1 2.4.6 2.8 1 .6.7.8-1.3.8-1.7 0-2.4-.3-1.4-.7.7-.2.6-4.3 0-4.9-.5-.6-.5-.6-1.4-.1-.7.3-.8.5-.8 2.4 0 1.5.1 2.2.5 2.5.8.7.5.9-1.4.9-1.2-.2-2.1-.2-2.1-.3zm-23.8-16c-1-.3-1.9-.8-2.1-1-.4-.5-1.3-6.3-1.1-7 .1-.3.5-.5.9-.5.6 0 .8.3 1.1 1.4.8 2.1 2.2 4.1 3.7 4.9 1.1.6 1.6.7 3.3.6 2.2-.1 3.1-.6 4.2-2.3.8-1.1.9-3.8.2-5.2-.7-1.3-2.8-3-5.9-4.7-5-2.7-6.6-4.8-6.6-8.5 0-3.4 1.3-5.6 4.4-7.2 1.6-.9 6.1-1.1 8.7-.4l1.8.5.4 3.3c.2 1.7.3 3.3.3 3.3-.1 0-.5.2-.9.3-.8.2-.8.1-1.2-1.5-.7-2.2-2.4-3.9-4-4.2-3.3-.6-5.9 1.6-5.9 4.7 0 2.7 1.6 4.4 6.1 6.8 5.6 2.9 7.2 4.8 7.2 8.6 0 3.6-1.4 5.9-4.6 7.6-1.7.9-2.2 1-5 1.1-2.6-.1-3.7-.2-5-.6zm19.8-.6c.1-.9.2-1 1.1-1.1 1.6-.1 2.6-.7 2.9-1.4.1-.4.2-5.8.2-12V23.8l-.8-.7c-.5-.4-1.1-.7-1.6-.7-1.2 0-1.7-.3-1.7-1.1v-.8H84v.8c0 .5-.2.8-.8.9-1.7.4-2 .5-2.4.7-.6.4-.9 2.8-.9 7.1v3.4h16l-.2-4.8c-.1-2.6-.3-5-.5-5.4s-.8-.7-1.4-.8c-1.9-.3-2.1-.5-2.1-1.1v-.7h11.9v.7c0 .8-.5 1.1-1.7 1.1-.5 0-1.1.3-1.6.7l-.8.7V47l.7.7c.5.4 1.1.7 2 .8 1.3.2 1.3.2 1.4 1.1l.1 1H91.1v-.9c0-1 .4-1.1 1.9-1.1.6 0 1.2-.3 1.7-.7l.8-.7.2-5.6.2-5.6H79.7l.2 5.6c.2 6.5.3 6.8 2.8 7.1 1.3.2 1.3.2 1.4 1.1l.1 1H71.9c0-.3.1-1.2.1-1.2zm-50.5-.2c.1-.8.2-.9 1.4-1 .9-.1 1.6-.4 2-.8.7-.7.7-.7.7-11.9 0-6.1-.1-11.5-.2-12-.2-.8-1.1-1.2-2.9-1.5-1-.2-1.1-.3-1.1-.9v-.8h12.2v.8c0 .6-.2.8-1.1.9-2.1.4-2.6.6-2.9 1.6-.4 1.1-.5 21.3-.1 22.5.1.4.5 1 .9 1.2 1.5 1.1 7 1.1 8.7-.2.8-.5 2.4-3 2.9-4.5.2-.5 1.7-.2 1.7.5 0 .2-.4 1.8-.8 3.6l-.8 3.2H21.4c0 .2.1-.7.1-.7z"/>
  </symbol>

  <symbol id="icon-check" viewBox="0 0 19 20">
    <path d="M0 10.7V1.3h12.3V4H2.7v13.3H16v-9h2.7V20H0v-9.3z"/>
    <path d="M7.3 13.6c-.9-1.2-1.9-2.5-2.3-3-.8-.9-.8-1-.1-1.4 1.4-1 2.2-.6 4.4 2.1l.6.8L11 9.4c1.3-3.1 4-7.8 5.1-8.7.9-.8 2-.9 2.6-.2.3.4 0 1-1.4 3.3-1.9 2.9-4.4 7.7-5.4 10.4-.6 1.5-.7 1.6-1.8 1.6-1.2-.1-1.4-.3-2.8-2.2z"/>
  </symbol>

  <symbol id="icon-compose" viewBox="0 0 22 20">
    <path d="M.4 19.5C0 19.1 0 18.1 0 9.9 0 1.4 0 .8.4.4.8.1 1.7 0 7 0c7.2 0 7-.1 7 2.5 0 1.6 0 1.6-1.2 2.8l-1.2 1.2H6.8C2.2 6.5 2 6.5 2 7s.2.5 4.3.5h4.3l-.7.7-.8.8H5.6C2.2 9 2 9 2 9.5s.2.5 3 .5h3l-.6.7c-.6.7-.6.7-3 .7-2.3 0-2.4 0-2.4.5s.2.5 2.3.5h2.3l-.1.7-.1.9H4.2c-2 0-2.2 0-2.2.5 0 .4.2.5 2.1.5h2.1l-.2.7-.1.7H4c-1.8 0-2 0-2 .5s.2.5 4.9.5h4.9l1.1-1 1.1-1v1.9c0 2.8.3 2.7-7 2.7-5.7 0-6.2-.1-6.6-.5zM7 4c0-.5-.2-.5-2.5-.5S2 3.5 2 4s.2.5 2.5.5S7 4.5 7 4z"/>
    <path d="M7.3 14.1l.5-2.4L11.4 8c2-2 3.8-3.7 3.9-3.7.3 0 4.1 3.8 4.1 4.1 0 .1-1.8 2-3.9 4.2l-3.9 3.9H6.8l.5-2.4zm10.9-8.5L16 3.4l.8-.8c.4-.4 1-.8 1.3-.8.7 0 3.9 3.2 3.9 3.9 0 .3-.4.8-.8 1.3l-.8.8-2.2-2.2z"/>
  </symbol>

  <symbol id="icon-gear" viewBox="0 0 20 20">
    <path d="M18.3 8.3c-.8-.3-1.2-.6-1.4-1.2-.3-.7-.3-.9.3-2.1l.6-1.3L17 3l-.8-.8-1.3.6c-1.2.5-1.4.5-2.1.3-.6-.3-.8-.6-1.2-1.4C11.1.2 11 0 10 0S8.9.2 8.3 1.7c-.3.8-.6 1.1-1.1 1.4-.7.3-.9.2-2.1-.3l-1.3-.5L3 3l-.7.8.6 1.3c.5 1.2.5 1.4.3 2.1-.4.5-.7.8-1.5 1.1C.2 8.9 0 9 0 10s.2 1.1 1.7 1.7c.8.3 1.2.6 1.4 1.2.3.7.3.9-.3 2.1l-.6 1.3.8.7.8.8 1.3-.6c1.2-.5 1.4-.5 2.1-.3.6.3.8.6 1.2 1.4.2.6.5 1.3.6 1.4 0 .2.5.3 1 .3 1 0 1.1-.2 1.7-1.7.3-.8.6-1.2 1.2-1.4.7-.3.9-.3 2.1.3l1.3.6.7-.8.8-.8-.6-1.3c-.5-1.2-.5-1.4-.3-2.1.3-.6.6-.8 1.4-1.2 1.5-.5 1.7-.6 1.7-1.6s-.2-1.1-1.7-1.7zm-6.8 4.8c-.9.4-1.4.6-3 0-2.9-1.4-2.9-4.9 0-6.3 1.1-.5 2-.5 3 0 1.3.6 2.2 1.9 2.2 3.1s-.9 2.6-2.2 3.2z"/>
    <path d="M10 8.2c-1.6 0-2.5 1.9-1.3 3.1 1.1 1.2 3.1.3 3.1-1.3 0-1-.7-1.8-1.8-1.8z"/>
  </symbol>

  <symbol id="icon-smartphone" viewBox="0 0 12 20">
    <path d="M11.7.3C11.3-.1.7-.1.3.3.1.5 0 3 0 9.9c0 8.2 0 9.3.4 9.7.4.4.9.4 5.7.4 3.8 0 5.3-.1 5.6-.3.4-.4.4-19 0-19.4zM6.8 18.7c-.3.3-.7.3-.8.3-.9-.1-1.4-1.4-.4-1.8 1.1-.4 1.7.8 1.2 1.5zm3.6-9.9v7.1L6 16c-4.8 0-4.3 0-4.4-.2-.1-.2-.1-3.4-.1-7.2l.1-6.9h8.7l.1 7.1z"/>
  </symbol>

  <symbol id="icon-telegram" viewBox="0 0 36 30">
    <path fill="#cadbeb" d="M13.5 28.2c-1.1 0-.9-.4-1.3-1.4L9.1 16.5 33.2 2.1"/>
    <path fill="#abccdf" d="M13.5 28.2c.8 0 1.2-.4 1.6-.8l4.4-4.3-5.5-3.3"/>
    <path fill="#fff" d="M14 19.8l13.3 9.8c1.5.8 2.6.4 3-1.4l5.4-25.4c.6-2.2-.8-3.2-2.3-2.6L1.7 12.4c-2.2.9-2.2 2.1-.4 2.6l8.1 2.5L28.2 5.7c.9-.5 1.7-.2 1 .3"/>
  </symbol>

  <symbol id="icon-mail" viewBox="0 0 46 30" fill="currentColor">
    <path d="M2.5 29.4c5.2-5.2 9.8-8.1 16-12.8 3.5 1.3 5.5 1.3 9 0 4.7 3.2 11.6 8.5 16 12.8-.5.8-40.5.8-41 0zM.4 2.6C2.7 4 11 10.2 16.6 15 10.4 20.3 5.8 23.6.2 27.8.1 25-.3 10.7.4 2.6zm29.1 12.3C35.2 10.1 39.6 7 45.8 2.4c.3 9.3.2 16.5 0 25.3-2.1-1.7-12.1-9.2-16.3-12.8zM2.5.6c.4-.7 40.5-.7 41 0-2.6 3.3-20 15.3-20.5 15-.4.1-13.9-9.8-20.5-15z"/>
  </symbol>

  <view id="icon-check-view" viewBox="0 0 19 20"></view>
  <view id="icon-compose-view" viewBox="0 21 22 20"></view>
  <view id="icon-gear-view" viewBox="0 42 20 20"></view>
  <view id="icon-smartphone-view" viewBox="0 63 12 20"></view>

  <use id="check" xlink:href="#icon-check" width="19" height="20" x="0" y="0"></use>
  <use id="compose" xlink:href="#icon-compose" width="22" height="20" x="0" y="21"></use>
  <use id="gear" xlink:href="#icon-gear" width="20" height="20" x="0" y="42"></use>
  <use id="smartphone" xlink:href="#icon-smartphone" width="12" height="20" x="0" y="63"></use>
</svg>
